<svg xmlns="http://www.w3.org/2000/svg" viewBox="0 0 32 32"><g fill="none" fill-rule="evenodd"><path fill="#273B7D" d="M26 0H6C2.73 0 0 2.67 0 6v26h26c3.27 0 6-2.67 6-6V6c0-3.33-2.67-6-6-6"/><path fill="#FFF" d="M17.95 15.33l-.54-.27.48-.4a4.12 4.12 0 0 0 1.43-3.23C19.32 8.75 17.2 7 13.93 7H9.78C8.81 7.07 8 7.8 8 8.75V24h6c3.61 0 6-1.95 6-4.97-.07-1.61-.82-3.03-2.05-3.7zm-6.6-3.42v-.88c0-.8.33-1.14 1.08-1.2h1.5c1.3 0 2.05.73 2.05 2 0 .95-.55 2.1-1.98 2.1h-2.6l-.06-2.02zm2.85 9.2h-2.93v-3.43c0-.74.28-1.14.96-1.2h1.97c1.44 0 2.32.87 2.32 2.28 0 1.54-.88 2.35-2.32 2.35z"/><path fill="#499FDD" d="M22 22.5a2.5 2.5 0 1 1 5 0 2.5 2.5 0 0 1-5 0"/></g></svg>